<svg width="100%" viewBox="0 0 680 400" xmlns="http://www.w3.org/2000/svg" font-family="system-ui, -apple-system, 'Apple SD Gothic Neo', 'Malgun Gothic', sans-serif">
<rect x="0" y="0" width="680" height="400" fill="#FFFFFF"/>
<text x="170" y="30" text-anchor="middle" font-size="14" font-weight="500" fill="#2C2C2A">VM 방식</text>
<text x="510" y="30" text-anchor="middle" font-size="14" font-weight="500" fill="#2C2C2A">컨테이너 방식</text>
<rect x="50" y="46" width="110" height="38" rx="6" fill="#EEEDFE" stroke="#534AB7" stroke-width="0.5"/>
<text x="105" y="65" text-anchor="middle" dominant-baseline="central" font-size="14" font-weight="500" fill="#3C3489">앱 A</text>
<rect x="180" y="46" width="110" height="38" rx="6" fill="#EEEDFE" stroke="#534AB7" stroke-width="0.5"/>
<text x="235" y="65" text-anchor="middle" dominant-baseline="central" font-size="14" font-weight="500" fill="#3C3489">앱 B</text>
<rect x="50" y="94" width="110" height="46" rx="6" fill="#FAECE7" stroke="#993C1D" stroke-width="0.5"/>
<text x="105" y="108" text-anchor="middle" dominant-baseline="central" font-size="14" font-weight="500" fill="#712B13">게스트 커널</text>
<text x="105" y="126" text-anchor="middle" dominant-baseline="central" font-size="12" fill="#993C1D">우분투 전체</text>
<rect x="180" y="94" width="110" height="46" rx="6" fill="#FAECE7" stroke="#993C1D" stroke-width="0.5"/>
<text x="235" y="108" text-anchor="middle" dominant-baseline="central" font-size="14" font-weight="500" fill="#712B13">게스트 커널</text>
<text x="235" y="126" text-anchor="middle" dominant-baseline="central" font-size="12" fill="#993C1D">우분투 전체</text>
<rect x="50" y="150" width="240" height="42" rx="6" fill="#F1EFE8" stroke="#5F5E5A" stroke-width="0.5"/>
<text x="170" y="164" text-anchor="middle" dominant-baseline="central" font-size="14" font-weight="500" fill="#444441">하이퍼바이저</text>
<text x="170" y="182" text-anchor="middle" dominant-baseline="central" font-size="12" fill="#5F5E5A">가짜 하드웨어 제공</text>
<rect x="390" y="46" width="110" height="38" rx="6" fill="#EEEDFE" stroke="#534AB7" stroke-width="0.5"/>
<text x="445" y="65" text-anchor="middle" dominant-baseline="central" font-size="14" font-weight="500" fill="#3C3489">앱 A</text>
<rect x="520" y="46" width="110" height="38" rx="6" fill="#EEEDFE" stroke="#534AB7" stroke-width="0.5"/>
<text x="575" y="65" text-anchor="middle" dominant-baseline="central" font-size="14" font-weight="500" fill="#3C3489">앱 B</text>
<rect x="390" y="94" width="240" height="46" rx="6" fill="#E1F5EE" stroke="#0F6E56" stroke-width="0.5"/>
<text x="510" y="108" text-anchor="middle" dominant-baseline="central" font-size="14" font-weight="500" fill="#085041">컨테이너 런타임</text>
<text x="510" y="126" text-anchor="middle" dominant-baseline="central" font-size="12" fill="#0F6E56">격리만 설정, 커널 없음</text>
<rect x="50" y="228" width="580" height="46" rx="6" fill="#F1EFE8" stroke="#5F5E5A" stroke-width="0.5"/>
<text x="340" y="242" text-anchor="middle" dominant-baseline="central" font-size="14" font-weight="500" fill="#444441">호스트 커널</text>
<text x="340" y="260" text-anchor="middle" dominant-baseline="central" font-size="12" fill="#5F5E5A">프로세스 생성, 메모리, 파일시스템</text>
<rect x="50" y="290" width="580" height="38" rx="6" fill="#F1EFE8" stroke="#5F5E5A" stroke-width="0.5"/>
<text x="340" y="309" text-anchor="middle" dominant-baseline="central" font-size="14" font-weight="500" fill="#444441">하드웨어</text>
<text x="170" y="356" text-anchor="middle" font-size="12" fill="#5F5E5A">커널 3개 · 부팅 필요 · 수 GB</text>
<text x="510" y="356" text-anchor="middle" font-size="12" fill="#5F5E5A">커널 1개 · 부팅 없음 · 수십 MB</text>
</svg>
